<?xml version="1.0" standalone="no"?>
<!DOCTYPE svg PUBLIC "-//W3C//DTD SVG 20010904//EN"
 "http://www.w3.org/TR/2001/REC-SVG-20010904/DTD/svg10.dtd">
<svg version="1.0" xmlns="http://www.w3.org/2000/svg"
 width="260.000000pt" height="260.000000pt" viewBox="0 0 260.000000 260.000000"
 preserveAspectRatio="xMidYMid meet">
<metadata>
Created by potrace 1.11, written by Peter Selinger 2001-2013
</metadata>
<g transform="translate(0.000000,260.000000) scale(0.100000,-0.100000)"
fill="#000000" stroke="none">
<path d="M250 2537 c-3 -3 -5 -560 -4 -1239 l0 -1233 565 0 c636 0 705 4 889
46 221 51 442 178 554 318 93 116 137 233 140 379 7 298 -177 520 -512 617
l-76 22 49 19 c115 43 265 166 322 262 89 150 92 353 7 497 -82 140 -307 261
-539 290 -27 4 -61 9 -75 12 -32 7 -1313 17 -1320 10z m1140 -301 c157 -12
286 -59 340 -124 91 -110 73 -346 -34 -440 -58 -51 -134 -85 -267 -119 -13 -3
-186 -8 -384 -10 l-360 -5 1 344 c0 190 3 349 6 354 7 10 561 10 698 0z m120
-1001 c226 -43 357 -126 405 -256 16 -42 20 -78 20 -164 -1 -96 -4 -117 -27
-166 -59 -129 -202 -219 -423 -265 -28 -6 -107 -13 -195 -19 -126 -7 -590 -8
-597 -1 -8 7 -12 865 -5 880 5 9 769 2 822 -9z"/>
</g>
</svg>
