<?xml version="1.0" encoding="UTF-8" standalone="no"?>
<svg
   xmlns:dc="http://purl.org/dc/elements/1.1/"
   xmlns:cc="http://creativecommons.org/ns#"
   xmlns:rdf="http://www.w3.org/1999/02/22-rdf-syntax-ns#"
   xmlns:svg="http://www.w3.org/2000/svg"
   xmlns="http://www.w3.org/2000/svg"
   xmlns:sodipodi="http://sodipodi.sourceforge.net/DTD/sodipodi-0.dtd"
   xmlns:inkscape="http://www.inkscape.org/namespaces/inkscape"
   inkscape:version="1.0 (4035a4f, 2020-05-01)"
   height="87.000114"
   width="77.151009"
   sodipodi:docname="nodejs.svg"
   version="1.1"
   viewBox="0 0 77.151005 87.000114"
   xml:space="preserve"
   id="svg2"><sodipodi:namedview
     inkscape:current-layer="svg2"
     inkscape:window-maximized="0"
     inkscape:window-y="23"
     inkscape:window-x="0"
     inkscape:cy="55.679116"
     inkscape:cx="46.50499"
     inkscape:zoom="6.69"
     fit-margin-bottom="0"
     fit-margin-right="0"
     fit-margin-left="0"
     fit-margin-top="0"
     showgrid="false"
     id="namedview844"
     inkscape:window-height="840"
     inkscape:window-width="1298"
     inkscape:pageshadow="2"
     inkscape:pageopacity="0"
     guidetolerance="10"
     gridtolerance="10"
     objecttolerance="10"
     borderopacity="1"
     bordercolor="#666666"
     pagecolor="#ffffff" /><metadata
     id="metadata8"><rdf:RDF><cc:Work
         rdf:about=""><dc:format>image/svg+xml</dc:format><dc:type
           rdf:resource="http://purl.org/dc/dcmitype/StillImage" /><dc:title></dc:title></cc:Work></rdf:RDF></metadata><defs
     id="defs6"><clipPath
       clipPathUnits="userSpaceOnUse"
       id="clipPath18"><path
         d="M 0,501.6 V 0 h 1863.8 v 501.6 z"
         id="path20" /></clipPath></defs><g
     transform="matrix(1.25,0,0,-1.25,0.00271759,99.998996)"
     id="g10"><g
       transform="matrix(0.21686862,0,0,0.21686862,-323.44654,9.8273315)"
       id="g12"><g
         id="g14"><g
           clip-path="url(#clipPath18)"
           fill="#000000"
           fillRule="nonzero"
           id="g16"><path
             d="m 1633.7,2.6406 c -4.3,0 -8.57,1.125 -12.33,3.3008 l -39.27,23.234 c -5.86,3.2812 -3,4.4414 -1.07,5.1172 7.83,2.7148 9.41,3.3398 17.76,8.0742 0.87,0.4883 2.02,0.3047 2.92,-0.2227 l 30.16,-17.91 c 1.1,-0.6055 2.64,-0.6055 3.65,0 l 117.6,67.879 c 1.1,0.625 1.8,1.8867 1.8,3.1836 v 135.72 c 0,1.328 -0.7,2.57 -1.82,3.242 l -117.56,67.824 c -1.09,0.633 -2.53,0.633 -3.63,0 l -117.53,-67.844 c -1.14,-0.652 -1.86,-1.933 -1.86,-3.222 v -135.72 c 0,-1.2969 0.72,-2.5274 1.85,-3.1446 l 32.22,-18.613 c 17.48,-8.7383 28.19,1.5547 28.19,11.894 v 134 c 0,1.894 1.52,3.39 3.41,3.39 h 14.92 c 1.86,0 3.4,-1.496 3.4,-3.39 v -134 c 0,-23.328 -12.7,-36.707 -34.82,-36.707 -6.8,0 -12.15,0 -27.09,7.3632 l -30.84,17.754 c -7.62,4.4023 -12.33,12.637 -12.33,21.453 v 135.72 c 0,8.82 4.71,17.05 12.33,21.437 l 117.61,67.957 c 7.44,4.211 17.33,4.211 24.71,0 l 117.6,-67.957 c 7.62,-4.406 12.35,-12.617 12.35,-21.437 v -135.72 c 0,-8.8164 -4.73,-17.02 -12.35,-21.453 l -117.5,-67.906 c -3.76,-2.1758 -8.02,-3.3008 -12.38,-3.3008"
             id="path30" /><path
             d="m 1670,96.148 c -51.47,0 -62.25,23.622 -62.25,43.438 0,1.883 1.52,3.387 3.4,3.387 h 15.21 c 1.7,0 3.11,-1.219 3.38,-2.879 2.29,-15.481 9.14,-23.293 40.26,-23.293 24.77,0 35.32,5.605 35.32,18.75 0,7.578 -2.99,13.203 -41.49,16.972 -32.18,3.184 -52.08,10.293 -52.08,36.036 0,23.73 20,37.882 53.53,37.882 37.68,0 56.32,-13.078 58.68,-41.132 0.09,-0.969 -0.25,-1.895 -0.89,-2.618 -0.65,-0.675 -1.55,-1.086 -2.49,-1.086 h -15.27 c -1.58,0 -2.98,1.125 -3.3,2.657 -3.66,16.289 -12.57,21.496 -36.73,21.496 -27.05,0 -30.19,-9.426 -30.19,-16.485 0,-8.554 3.71,-11.046 40.23,-15.878 36.14,-4.778 53.31,-11.543 53.31,-36.946 0,-25.625 -21.37,-40.301 -58.63,-40.301"
             id="path32" /></g></g></g></g></svg>
