<svg xmlns="http://www.w3.org/2000/svg" viewBox="0 0 1200 1200"><title>icon-square-big</title><path fill="#000000" d="M600 0l530.3 300v600L600 1200 69.7 900V300z"/><path fill="#666666" class="st1" d="M1035.6 879.3l-418.1 236.5V931.6L878 788.3l157.6 91zm28.6-25.9V358.8l-153 88.3V765l153 88.4zm-901.5 25.9l418.1 236.5V931.6L320.3 788.3l-157.6 91zm-28.6-25.9V358.8l153 88.3V765l-153 88.4zM152 326.8L580.8 84.2v178.1L306.1 413.4l-2.1 1.2-152-87.8zm894.3 0L617.5 84.2v178.1l274.7 151.1 2.1 1.2 152-87.8z"/></svg>
