<?xml version="1.0" standalone="no"?>
<!DOCTYPE svg PUBLIC "-//W3C//DTD SVG 20010904//EN"
 "http://www.w3.org/TR/2001/REC-SVG-20010904/DTD/svg10.dtd">
<svg version="1.0" xmlns="http://www.w3.org/2000/svg"
 width="201.000000pt" height="201.000000pt" viewBox="0 0 201.000000 201.000000"
 preserveAspectRatio="xMidYMid meet">
<metadata>
Created by potrace 1.11, written by Peter Selinger 2001-2013
</metadata>
<g transform="translate(0.000000,201.000000) scale(0.100000,-0.100000)"
fill="#000000" stroke="none">
<path d="M0 1319 l0 -691 363 5 c292 3 373 7 417 20 30 9 56 14 58 12 3 -3 5
-145 4 -317 0 -172 2 -321 5 -330 4 -16 18 -18 119 -18 84 0 114 3 115 13 1 6
2 19 3 27 1 8 -3 21 -8 28 -5 6 -5 12 0 12 5 0 9 106 9 235 l-1 235 196 1
c233 0 263 3 373 29 87 20 197 65 197 81 0 5 5 9 12 9 31 0 125 137 114 166
-3 9 -1 12 4 9 10 -6 12 7 15 120 1 63 -19 153 -38 170 -7 6 -13 16 -15 24 -5
23 -74 90 -117 114 -140 79 -212 89 -645 93 -201 1 -372 3 -380 4 -8 0 11 9
43 20 135 43 199 133 198 280 0 163 -94 267 -284 315 -86 22 -112 23 -424 24
l-333 2 0 -692z m670 522 c101 -28 159 -96 160 -187 0 -112 -62 -179 -191
-202 -29 -6 -138 -11 -241 -12 l-188 -1 0 204 c0 112 2 206 5 209 11 11 411 1
455 -11z m61 -576 c26 -10 61 -30 79 -45 l33 -27 0 -154 -1 -153 -36 -32 c-62
-53 -132 -67 -366 -69 -113 -1 -211 0 -217 3 -10 3 -13 63 -13 254 l0 250 238
-4 c197 -4 245 -8 283 -23z m779 -58 c8 -4 24 -8 35 -10 38 -6 110 -45 135
-74 48 -53 62 -91 63 -162 0 -80 -23 -133 -83 -184 -72 -61 -126 -72 -365 -72
l-210 0 0 85 c-1 47 5 107 12 134 13 52 11 160 -4 211 -8 25 -10 64 -4 78 2 7
406 0 421 -6z"/>
</g>
</svg>
